<svg width="16" height="16" viewBox="0 0 16 16" fill="none" xmlns="http://www.w3.org/2000/svg">
<g clip-path="url(#clip0_2003_2063)">
<path d="M7.00065 13.6673L13.6673 7.00065C13.9788 6.69537 14.2267 6.33136 14.3967 5.92967C14.5667 5.52798 14.6553 5.09658 14.6575 4.66042C14.6597 4.22426 14.5754 3.79198 14.4095 3.3886C14.2436 2.98521 13.9994 2.61871 13.691 2.3103C13.3826 2.00188 13.0161 1.75766 12.6127 1.59177C12.2093 1.42587 11.7771 1.34159 11.3409 1.34379C10.9047 1.34599 10.4733 1.43464 10.0716 1.6046C9.66995 1.77456 9.30594 2.02247 9.00065 2.33399L2.33399 9.00065C2.02247 9.30594 1.77456 9.66995 1.6046 10.0716C1.43464 10.4733 1.34599 10.9047 1.34379 11.3409C1.34159 11.7771 1.42587 12.2093 1.59177 12.6127C1.75766 13.0161 2.00188 13.3826 2.3103 13.691C2.61871 13.9994 2.98521 14.2436 3.3886 14.4095C3.79198 14.5754 4.22426 14.6597 4.66042 14.6575C5.09658 14.6553 5.52798 14.5667 5.92967 14.3967C6.33136 14.2267 6.69537 13.9788 7.00065 13.6673Z" stroke="#3A643B" stroke-width="1.33333" stroke-linecap="round" stroke-linejoin="round"/>
<path d="M5.66797 5.6665L10.3346 10.3332" stroke="#3A643B" stroke-width="1.33333" stroke-linecap="round" stroke-linejoin="round"/>
</g>
<defs>
<clipPath id="clip0_2003_2063">
<rect width="16" height="16" fill="white"/>
</clipPath>
</defs>
</svg>
