<svg width="20" height="21" viewBox="0 0 20 21" fill="none" xmlns="http://www.w3.org/2000/svg">
<path d="M9.24768 3.23357C9.55389 2.60547 10.4489 2.60547 10.7552 3.23357L12.3828 6.57212C12.504 6.82079 12.7401 6.99366 13.0137 7.03416L16.6719 7.57554C17.3561 7.6768 17.6304 8.51637 17.1379 9.00209L14.479 11.6242C14.2842 11.8163 14.1954 12.0915 14.2411 12.3613L14.8666 16.0539C14.9829 16.7403 14.2603 17.2613 13.6457 16.9341L10.3955 15.2035C10.1492 15.0723 9.85368 15.0723 9.60732 15.2035L6.35713 16.9341C5.74257 17.2613 5.01998 16.7403 5.13626 16.0539L5.76177 12.3613C5.80747 12.0915 5.71865 11.8163 5.5238 11.6242L2.86495 9.00209C2.37243 8.51637 2.6467 7.6768 3.33099 7.57554L6.98911 7.03416C7.26278 6.99366 7.49886 6.82079 7.62009 6.57212L9.24768 3.23357Z" fill="#F79624"/>
</svg>
